<svg xmlns="http://www.w3.org/2000/svg" viewBox="0 0 64 64" width="64" height="64">
  <rect width="64" height="64" rx="14" fill="#1a1a1a"/>
  <g fill="none" stroke="#fecf00" stroke-width="3.4" stroke-linecap="round">
    <path d="M25 14h14"/>
    <path d="M26 15c-6 3-9 7-9 11s4 5 8 4"/>
    <path d="M38 15c6 3 9 7 9 11s-4 5-8 4"/>
  </g>
  <path fill="#e8e8e1"
        d="M27 14h10v6c0 3 7 7 7 15 0 9-5 13-12 19-7-6-12-10-12-19 0-8 7-12 7-15z"/>
  <path fill="#1a1a1a" d="M23 32h18v3.4H23zM24.5 41h15V44h-15z"/>
</svg>
